<?xml version="1.0" encoding="UTF-8" standalone="no"?>
<svg
   xmlns:osb="http://www.openswatchbook.org/uri/2009/osb"
   xmlns:dc="http://purl.org/dc/elements/1.1/"
   xmlns:cc="http://creativecommons.org/ns#"
   xmlns:rdf="http://www.w3.org/1999/02/22-rdf-syntax-ns#"
   xmlns:svg="http://www.w3.org/2000/svg"
   xmlns="http://www.w3.org/2000/svg"
   xmlns:xlink="http://www.w3.org/1999/xlink"
   xmlns:sodipodi="http://sodipodi.sourceforge.net/DTD/sodipodi-0.dtd"
   xmlns:inkscape="http://www.inkscape.org/namespaces/inkscape"
   width="418.35895"
   height="521.05676"
   version="1.1"
   id="svg29"
   sodipodi:docname="BIODIV_Sym_MonumNat.svg"
   inkscape:version="0.92.3 (2405546, 2018-03-11)">
  <metadata
     id="metadata35">
    <rdf:RDF>
      <cc:Work
         rdf:about="">
        <dc:format>image/svg+xml</dc:format>
        <dc:type
           rdf:resource="http://purl.org/dc/dcmitype/StillImage" />
        <dc:title />
      </cc:Work>
    </rdf:RDF>
  </metadata>
  <defs
     id="defs33">
    <linearGradient
       id="linearGradient2409"
       osb:paint="solid">
      <stop
         style="stop-color:#288bdb;stop-opacity:1;"
         offset="0"
         id="stop2407" />
    </linearGradient>
    <linearGradient
       id="linearGradient2408"
       osb:paint="gradient">
      <stop
         style="stop-color:#288b5b;stop-opacity:1;"
         offset="0"
         id="stop2404" />
      <stop
         style="stop-color:#288b52;stop-opacity:0;"
         offset="1"
         id="stop2406" />
    </linearGradient>
    <linearGradient
       id="linearGradient2345"
       osb:paint="solid">
      <stop
         style="stop-color:#288b52;stop-opacity:1;"
         offset="0"
         id="stop2343" />
    </linearGradient>
    <inkscape:path-effect
       effect="bspline"
       id="path-effect2287"
       is_visible="true"
       weight="33.333333"
       steps="2"
       helper_size="0"
       apply_no_weight="true"
       apply_with_weight="true"
       only_selected="false" />
    <inkscape:path-effect
       effect="bspline"
       id="path-effect2166"
       is_visible="true"
       weight="33.333333"
       steps="2"
       helper_size="0"
       apply_no_weight="true"
       apply_with_weight="true"
       only_selected="false" />
    <linearGradient
       y2="256"
       y1="256"
       x2="512"
       x1="-2.7000001e-006"
       id="SVGID_1_"
       gradientUnits="userSpaceOnUse"
       gradientTransform="matrix(0.06549452,0,0,0.06817363,15.161087,24.753822)">
      <stop
         id="stop913"
         style="stop-color:#33B49D"
         offset="0" />
      <stop
         id="stop915"
         style="stop-color:#00A185"
         offset="1" />
    </linearGradient>
    <linearGradient
       xlink:href="#SVGID_2_"
       id="linearGradient986"
       x1="34.803967"
       y1="142.92651"
       x2="61.725655"
       y2="142.92651"
       gradientUnits="userSpaceOnUse"
       gradientTransform="matrix(1.0379858,0,0,1.0379858,-18.170504,-106.14938)" />
    <linearGradient
       y2="256.00052"
       y1="256.00052"
       x2="469.33334"
       x1="42.666664"
       id="SVGID_2_"
       gradientUnits="userSpaceOnUse"
       gradientTransform="matrix(0.0630977,0,0,0.06567877,32.111799,126.11271)"
       spreadMethod="pad">
      <stop
         id="stop920"
         style="stop-color:#00A185"
         offset="0" />
      <stop
         id="stop922"
         style="stop-color:#33B49D"
         offset="1" />
    </linearGradient>
    <linearGradient
       y2="256"
       y1="256"
       x2="512"
       x1="3.8000001e-006"
       id="SVGID_1_-9"
       gradientUnits="userSpaceOnUse"
       gradientTransform="matrix(0.11615282,0,0,0.12401206,60.361174,-26.469221)">
      <stop
         id="stop909"
         style="stop-color:#33B49D"
         offset="0" />
      <stop
         id="stop911"
         style="stop-color:#00A185"
         offset="1" />
    </linearGradient>
    <linearGradient
       y2="256.00052"
       y1="256.00052"
       x2="469.33334"
       x1="42.666668"
       id="SVGID_2_-1"
       gradientUnits="userSpaceOnUse"
       gradientTransform="matrix(0.11615282,0,0,0.12401206,60.361174,-26.469221)">
      <stop
         id="stop916"
         style="stop-color:#00A185"
         offset="0" />
      <stop
         id="stop918"
         style="stop-color:#33B49D"
         offset="1" />
    </linearGradient>
  </defs>
  <sodipodi:namedview
     pagecolor="#ffffff"
     bordercolor="#666666"
     borderopacity="1"
     objecttolerance="10"
     gridtolerance="10"
     guidetolerance="10"
     inkscape:pageopacity="0"
     inkscape:pageshadow="2"
     inkscape:window-width="1680"
     inkscape:window-height="1031"
     id="namedview31"
     showgrid="false"
     inkscape:pagecheckerboard="true"
     fit-margin-top="0"
     fit-margin-left="0"
     fit-margin-right="0"
     fit-margin-bottom="0"
     inkscape:zoom="0.76958988"
     inkscape:cx="299.9763"
     inkscape:cy="303.9116"
     inkscape:window-x="1916"
     inkscape:window-y="-4"
     inkscape:window-maximized="1"
     inkscape:current-layer="svg29"
     inkscape:snap-text-baseline="false" />
  <g
     id="g8"
     transform="matrix(0.57351851,0,0,0.57351842,39.642262,66.24989)">
    <path
       inkscape:connector-curvature="0"
       id="path4"
       d="m 251.511,7.435 c -0.922,0.055 -1.84,0.122 -2.752,0.211 -0.279,0.027 -0.557,0.058 -0.836,0.088 -0.98,0.106 -1.955,0.228 -2.924,0.372 -0.181,0.027 -0.363,0.053 -0.544,0.081 -1.153,0.18 -2.298,0.38 -3.433,0.611 -0.002,0 -0.004,10e-4 -0.006,10e-4 19.654,3.997 38.056,17.686 49.714,34.941 8.256,12.219 22.362,19.262 37.074,18.262 0.098,-0.007 0.196,-0.013 0.294,-0.02 -8.81,-31.546 -37.74,-54.695 -72.096,-54.695 -1.204,0 -2.4,0.035 -3.591,0.092 -0.301,0.014 -0.6,0.038 -0.9,0.056 z"
       style="fill:#097c09" />
    <path
       inkscape:connector-curvature="0"
       id="path6"
       d="m 427.457,163.615 c 5.323,-10.289 8.347,-21.959 8.347,-34.342 0,-41.349 -33.52,-74.87 -74.87,-74.87 -5.131,0 -10.141,0.519 -14.981,1.504 34.165,6.944 59.879,37.151 59.879,73.366 0,12.383 -3.025,24.053 -8.347,34.342 30.139,12.739 51.289,42.578 51.289,77.357 0,45.073 -35.535,81.799 -80.111,83.809 -5.094,18.45 -22.139,33.044 -43.913,37.712 4.793,1.029 9.813,1.581 14.988,1.581 28.681,0 52.682,-16.782 58.896,-39.292 44.577,-2.01 80.111,-38.736 80.111,-83.809 0.002,-34.78 -21.147,-64.618 -51.288,-77.358 z"
       style="fill:#097c09" />
  </g>
  <g
     transform="matrix(1.1206599,0,0,1.0496383,-61.646048,8.4307947)"
     id="g819"
     style="fill:#feffdf;fill-opacity:0.73394494" />
  <g
     transform="matrix(1.1206599,0,0,1.0496383,-61.646048,8.4307947)"
     id="g821"
     style="fill:#feffdf;fill-opacity:0.73394494" />
  <g
     transform="matrix(1.1206599,0,0,1.0496383,-61.646048,8.4307947)"
     id="g823"
     style="fill:#feffdf;fill-opacity:0.73394494" />
  <g
     transform="matrix(1.1206599,0,0,1.0496383,-61.646048,8.4307947)"
     id="g825"
     style="fill:#feffdf;fill-opacity:0.73394494" />
  <g
     transform="matrix(1.1206599,0,0,1.0496383,-61.646048,8.4307947)"
     id="g827"
     style="fill:#feffdf;fill-opacity:0.73394494" />
  <g
     transform="matrix(1.1206599,0,0,1.0496383,-61.646048,8.4307947)"
     id="g829"
     style="fill:#feffdf;fill-opacity:0.73394494" />
  <g
     transform="matrix(1.1206599,0,0,1.0496383,-61.646048,8.4307947)"
     id="g831"
     style="fill:#feffdf;fill-opacity:0.73394494" />
  <g
     transform="matrix(1.1206599,0,0,1.0496383,-61.646048,8.4307947)"
     id="g833"
     style="fill:#feffdf;fill-opacity:0.73394494" />
  <g
     transform="matrix(1.1206599,0,0,1.0496383,-61.646048,8.4307947)"
     id="g835"
     style="fill:#feffdf;fill-opacity:0.73394494" />
  <g
     transform="matrix(1.1206599,0,0,1.0496383,-61.646048,8.4307947)"
     id="g837"
     style="fill:#feffdf;fill-opacity:0.73394494" />
  <g
     transform="matrix(1.1206599,0,0,1.0496383,-61.646048,8.4307947)"
     id="g839"
     style="fill:#feffdf;fill-opacity:0.73394494" />
  <g
     transform="matrix(1.1206599,0,0,1.0496383,-61.646048,8.4307947)"
     id="g841"
     style="fill:#feffdf;fill-opacity:0.73394494" />
  <g
     transform="matrix(1.1206599,0,0,1.0496383,-61.646048,8.4307947)"
     id="g843"
     style="fill:#feffdf;fill-opacity:0.73394494" />
  <g
     transform="matrix(1.1206599,0,0,1.0496383,-61.646048,8.4307947)"
     id="g845"
     style="fill:#feffdf;fill-opacity:0.73394494" />
  <g
     transform="matrix(1.1206599,0,0,1.0496383,-61.646048,8.4307947)"
     id="g847"
     style="fill:#feffdf;fill-opacity:0.73394494" />
  <circle
     cy="211.80115"
     cx="209.20232"
     id="path883-2"
     style="opacity:1;fill:none;fill-opacity:1;fill-rule:nonzero;stroke:none;stroke-width:9.44881916;stroke-miterlimit:4;stroke-dasharray:none;stroke-dashoffset:0;stroke-opacity:1"
     r="206.60356" />
  <ellipse
     ry="206.99843"
     rx="206.99844"
     cy="208.61885"
     cx="208.55267"
     id="path883"
     style="opacity:1;fill:#ffffff;fill-opacity:1;fill-rule:nonzero;stroke:none;stroke-width:31.52459908;stroke-miterlimit:4;stroke-dasharray:none;stroke-dashoffset:0;stroke-opacity:0.43577983" />
  <g
     transform="translate(1183.6681,-235.80154)"
     id="g1015" />
  <g
     transform="translate(1183.6681,-235.80154)"
     id="g1017" />
  <g
     transform="translate(1183.6681,-235.80154)"
     id="g1019" />
  <g
     transform="translate(1183.6681,-235.80154)"
     id="g1021" />
  <g
     transform="translate(1183.6681,-235.80154)"
     id="g1023" />
  <g
     transform="translate(1183.6681,-235.80154)"
     id="g1025" />
  <g
     transform="translate(1183.6681,-235.80154)"
     id="g1027" />
  <g
     transform="translate(1183.6681,-235.80154)"
     id="g1029" />
  <g
     transform="translate(1183.6681,-235.80154)"
     id="g1031" />
  <g
     transform="translate(1183.6681,-235.80154)"
     id="g1033" />
  <g
     transform="translate(1183.6681,-235.80154)"
     id="g1035" />
  <g
     transform="translate(1183.6681,-235.80154)"
     id="g1037" />
  <g
     transform="translate(1183.6681,-235.80154)"
     id="g1039" />
  <g
     transform="translate(1183.6681,-235.80154)"
     id="g1041" />
  <g
     transform="translate(1183.6681,-235.80154)"
     id="g1043" />
  <ellipse
     ry="193.11743"
     rx="193.12943"
     cy="208.53764"
     cx="208.56471"
     id="path883-0"
     style="opacity:1;fill:none;fill-opacity:1;fill-rule:nonzero;stroke:#537e15;stroke-width:29.41228485;stroke-miterlimit:4;stroke-dasharray:none;stroke-dashoffset:0;stroke-opacity:1" />
  <path
     inkscape:connector-curvature="0"
     style="fill:#537e15;stroke-width:0.56033522;fill-opacity:1"
     d="m 330.33072,203.43196 c 0,-19.4879 -11.85109,-36.20774 -28.73903,-43.34585 2.9821,-5.76529 4.67712,-12.3044 4.67712,-19.24303 0,-23.1693 -18.78244,-41.952301 -41.9523,-41.952301 -6.60131,0 -12.84344,1.529151 -18.39972,4.245661 -4.93712,-17.675214 -21.14761,-30.646413 -40.39849,-30.646413 -19.25088,0 -35.46137,12.971199 -40.39849,30.646973 -5.55572,-2.71651 -11.79841,-4.24566 -18.39972,-4.24566 -23.1693,0 -41.9523,18.78244 -41.9523,41.9523 0,6.93863 1.69502,13.47774 4.67712,19.24303 -16.887943,7.13811 -28.739032,23.85795 -28.739032,43.34585 0,25.25598 19.911512,45.83485 44.889572,46.96169 3.48248,12.6137 16.93053,22.01669 33.0015,22.01669 9.10881,0 17.37095,-3.02525 23.46068,-7.93771 6.08916,4.91246 14.35186,7.93771 23.46067,7.93771 9.10881,0 17.37095,-3.02525 23.46067,-7.93771 6.08917,4.91246 14.35187,7.93771 23.46068,7.93771 16.07153,0 29.51958,-9.40355 33.0015,-22.01669 24.97806,-1.1274 44.88957,-21.70627 44.88957,-46.96225 z"
     id="path940" />
  <path
     inkscape:connector-curvature="0"
     style="fill:#009000;stroke-width:0.56033522"
     d="m 175.47929,257.52391 c -3.78338,6.41696 -19.46324,13.59261 -25.27784,14.00054 0.6399,0.13728 1.28821,0.25719 1.94156,0.36366 0.0527,0.008 0.10478,0.0179 0.15746,0.0263 0.66287,0.10534 1.33191,0.19556 2.00768,0.26784 0.0174,0.002 0.0347,0.003 0.0521,0.005 0.60796,0.0644 1.22265,0.11039 1.8407,0.14737 0.15073,0.009 0.3009,0.0174 0.45219,0.0247 0.64382,0.0308 1.29101,0.0516 1.94436,0.0516 v 0 c 8.30753,0 15.90512,-2.52207 21.79816,-6.69152 l 1.03326,-0.75141 -5.26211,-8.63365 z"
     id="path948" />
  <path
     inkscape:connector-curvature="0"
     style="fill:#bf6101;stroke-width:0.56033522"
     d="m 226.49557,268.2364 17.97387,-28.36192 c 1.42157,-2.24359 0.99179,-5.18871 -1.01253,-6.93191 v 0 c -2.13992,-1.86143 -5.35792,-1.73984 -7.35103,0.27792 l -13.2368,13.40098 c -1.75553,1.77738 -4.76341,0.29922 -4.42889,-2.17634 l 3.89265,-28.83933 c 0.41577,-3.08129 -1.862,-5.87175 -4.96401,-6.08132 l -3.64666,-0.24655 c -2.7406,-0.18491 -5.17974,1.72583 -5.65547,4.43057 l -6.94759,39.47506 c -0.38663,2.19539 -3.1743,2.9199 -4.58074,1.19015 l -21.76006,-26.76105 c -1.50562,-1.85191 -4.05234,-2.48901 -6.25222,-1.5639 l -3.80972,1.60144 c -3.01628,1.26804 -4.2098,4.91414 -2.52655,7.71974 l 22.3613,37.27238 c 3.23817,5.39771 4.57345,11.73005 3.76377,17.97219 -2.89805,22.35065 -6.49765,43.4299 -21.22942,60.60081 h 76.86958 v 0 c -15.77007,-18.3818 -19.65992,-41.24123 -21.74717,-65.34517 -0.53736,-6.18946 0.9621,-12.38621 4.28769,-17.63375 z"
     id="path950" />
  <path
     inkscape:connector-curvature="0"
     style="fill:#9a4d01;stroke-width:0.56033522"
     d="m 244.46832,239.87448 c 1.42157,-2.24359 0.99179,-5.18871 -1.01253,-6.93191 v 0 c -2.13992,-1.86143 -5.35792,-1.73984 -7.35103,0.27792 l -5.91154,5.98438 v 0 l -7.32526,7.4166 c -1.75553,1.77738 -4.76285,0.29922 -4.42889,-2.17634 l 3.89265,-28.83933 c 0.40568,-3.0034 -1.75105,-5.72327 -4.73315,-6.0533 l -10.94503,68.02917 c -0.18379,0.87861 -0.3278,1.76562 -0.42754,2.65879 v 0 0 c -0.20844,1.85919 -0.23646,3.74472 -0.0734,5.62913 2.08725,24.1045 5.97709,46.96393 21.74717,65.34517 v 0 h 16.05304 v 0 c -15.77007,-18.3818 -19.65992,-41.24123 -21.74717,-65.34517 -0.53568,-6.18946 0.96322,-12.38621 4.28881,-17.63375 z"
     id="path952" />
  <path
     inkscape:connector-curvature="0"
     style="fill:#121419;stroke-width:0.56033522"
     d="m 306.99108,158.12157 c 2.23238,-5.47896 3.36089,-11.27282 3.36089,-17.27793 0,-1.21761 -0.0482,-2.44811 -0.14344,-3.65563 -0.17707,-2.24807 -2.14441,-3.92515 -4.39079,-3.74976 -2.24751,0.17706 -3.92683,2.14272 -3.74976,4.39078 0.0779,0.99572 0.11823,2.00992 0.11823,3.01461 0,6.10989 -1.41989,11.95307 -4.22045,17.36702 -0.52335,1.01029 -0.60012,2.19316 -0.21349,3.2634 0.38664,1.07024 1.20248,1.93035 2.25031,2.37302 15.94378,6.73915 26.2461,22.27724 26.2461,39.58488 0,23.0096 -18.00525,41.84583 -40.99076,42.88245 -1.76674,0.0796 -3.28132,1.28765 -3.75144,2.99219 -3.04262,11.02123 -15.2669,19.02058 -29.06571,19.02058 -6.57497,0 -12.84625,-1.74993 -18.01198,-4.98082 l 13.48951,-21.28714 c 0.94529,-1.49161 1.43054,-3.14516 1.48097,-4.79254 0.0835,-2.74565 -1.04166,-5.47336 -3.26171,-7.40483 -3.75593,-3.26788 -9.43773,-3.05215 -12.9359,0.48917 l -10.12246,10.24797 3.30038,-24.44743 c 0.34853,-2.58482 -0.39728,-5.22568 -2.04635,-7.24569 -1.44286,-1.76786 -3.48976,-2.95241 -5.72214,-3.33904 -0.31883,-0.0549 -0.64158,-0.0941 -0.96658,-0.11599 l -3.64666,-0.24654 c -1.81436,-0.12328 -3.54972,0.27176 -5.05366,1.06463 -2.50694,1.32127 -4.37342,3.74977 -4.89845,6.73187 l -3.19279,18.14085 -3.19279,18.14029 -19.71371,-24.24402 c -0.65391,-0.80408 -1.42494,-1.47816 -2.27272,-2.01216 -0.005,-0.003 -0.0101,-0.007 -0.0151,-0.0106 -0.0913,-0.0571 -0.18715,-0.10646 -0.28017,-0.16082 -1.21313,-0.70434 -2.56577,-1.1386 -3.95709,-1.26187 -0.0443,-0.004 -0.0896,-0.003 -0.13392,-0.007 -0.20508,-0.0151 -0.41016,-0.028 -0.61637,-0.0302 -1.25627,-0.0123 -2.52487,0.22469 -3.72622,0.73011 l -3.80972,1.60144 c -2.52992,1.06296 -4.47036,3.1687 -5.32431,5.7765 -0.85395,2.60836 -0.534,5.45374 0.87805,7.80771 l 16.13653,26.89609 c -4.81328,2.57081 -10.44857,3.96045 -16.22619,3.96045 -13.79937,0 -26.02308,-7.99935 -29.0657,-19.02002 -0.47069,-1.7051 -1.98527,-2.91262 -3.75145,-2.99219 -22.98551,-1.03662 -40.990758,-19.87285 -40.990758,-42.88301 0,-17.3082 10.302322,-32.84629 26.246098,-39.58488 1.04783,-0.44267 1.86368,-1.30278 2.25031,-2.37302 0.38663,-1.07024 0.3093,-2.25311 -0.21349,-3.2634 -2.80055,-5.41395 -4.22044,-11.25713 -4.22044,-17.36702 0,-20.8809 16.98824,-37.86914 37.86913,-37.86914 5.8202,0 11.40786,1.28877 16.60665,3.83045 1.08873,0.53288 2.35845,0.55362 3.46512,0.0572 1.10554,-0.49646 1.93427,-1.45855 2.26039,-2.62629 4.5488,-16.287266 19.54449,-27.662631 36.46605,-27.662631 16.92156,0 31.91725,11.375365 36.46606,27.662631 0.32667,1.16774 1.15485,2.13039 2.26039,2.62629 1.1061,0.49702 2.37638,0.47628 3.46511,-0.0572 5.19879,-2.54168 10.78645,-3.83045 16.60665,-3.83045 13.95851,0 26.7448,7.64241 33.36853,19.94569 1.06855,1.98527 3.54524,2.72828 5.5305,1.65916 1.98583,-1.06856 2.72828,-3.54524 1.65916,-5.53051 -8.05034,-14.95199 -23.59124,-24.240102 -40.55819,-24.240102 -5.51313,0 -10.85537,0.952009 -15.93817,2.835856 -6.83777,-17.424743 -23.85011,-29.23829 -42.86284,-29.23829 -19.01273,0 -36.02507,11.813547 -42.86004,29.23773 -5.0828,-1.883847 -10.42503,-2.835857 -15.93817,-2.835857 -25.38431,0 -46.03546,20.651153 -46.03546,46.034903 0,6.00511 1.12851,11.79953 3.36089,17.27793 -16.788764,8.77093 -27.422805,26.12675 -27.422805,45.31039 0,26.43605 19.965303,48.24317 45.958135,50.83528 5.11025,13.22111 19.47165,22.2257 36.01554,22.2257 7.25298,0 14.35579,-1.80092 20.42814,-5.12258 l 2.02337,3.37209 c 2.76021,4.60148 3.90274,10.0513 3.21633,15.34702 -0.59396,4.5785 -1.3252,9.97005 -2.25255,15.24728 -0.38999,2.22117 1.09433,4.33756 3.31494,4.72755 2.22397,0.39056 4.33756,-1.09433 4.72755,-3.31494 0.95537,-5.43693 1.70286,-10.94167 2.30802,-15.61094 0.92175,-7.11121 -0.60908,-14.42639 -4.31178,-20.59736 l -22.3613,-37.27182 c -0.26447,-0.44042 -0.18883,-0.85731 -0.11991,-1.06687 0.0684,-0.20957 0.25439,-0.59004 0.72732,-0.78896 l 3.81028,-1.60143 c 0.52447,-0.22078 1.14308,-0.0661 1.50226,0.37598 l 21.76061,26.76161 c 0.0577,0.0706 0.11879,0.13672 0.17875,0.20452 0.80856,0.91895 1.81436,1.57959 2.91991,1.94212 1.17446,0.38551 2.45763,0.43594 3.72679,0.11487 0.014,-0.003 0.028,-0.006 0.0426,-0.01 0,0 0,0 5.6e-4,0 h 5.6e-4 c 1.2333,-0.32052 2.30578,-0.96042 3.14012,-1.82614 0.0325,-0.0342 0.0678,-0.0661 0.0997,-0.1003 0.0291,-0.0319 0.056,-0.0661 0.0846,-0.0986 0.80016,-0.9027 1.35489,-2.02562 1.57622,-3.28469 l 6.9476,-39.47505 c 0.11487,-0.65223 0.71387,-1.10779 1.35937,-1.0652 l 3.64722,0.24655 c 0.48581,0.0331 0.78111,0.30986 0.91335,0.47236 0.13224,0.16194 0.34461,0.50598 0.27905,0.98955 l -3.89265,28.83989 c -0.0482,0.35694 -0.0672,0.71219 -0.0583,1.06352 0.0605,2.45931 1.47481,4.71914 3.73576,5.82973 0.16138,0.0796 0.32499,0.15185 0.49029,0.21685 0.82538,0.32723 1.69165,0.48076 2.54953,0.469 1.71574,-0.0235 3.39955,-0.70771 4.66367,-1.98807 l 13.23623,-13.40098 c 0.22862,-0.23142 0.52616,-0.35637 0.82986,-0.3771 0.0135,-0.001 0.0263,-0.004 0.0398,-0.005 0.007,0 0.0134,10e-4 0.0202,10e-4 0.23198,-0.005 0.46508,0.0499 0.67296,0.16922 0.0712,0.0409 0.13952,0.0891 0.20396,0.14513 0.48469,0.42193 0.58667,1.12291 0.24319,1.66588 l -17.97387,28.36192 c -3.77498,5.95749 -5.51819,13.12137 -4.90742,20.17151 1.71014,19.75126 4.67376,42.02178 17.55194,60.91012 h -60.37276 c 4.6082,-6.83385 8.18874,-14.6085 10.86602,-23.55818 0.64607,-2.16009 -0.58106,-4.43561 -2.74172,-5.08168 -2.16121,-0.64606 -4.43617,0.58107 -5.08168,2.74172 -3.26563,10.91645 -7.96796,19.85436 -14.37652,27.32251 -1.0383,1.21032 -1.277,2.91486 -0.61076,4.36389 0.66624,1.44903 2.1147,2.3775 3.70942,2.3775 h 76.86958 c 1.59472,0 3.04374,-0.92847 3.70942,-2.3775 0.66624,-1.44903 0.42754,-3.15357 -0.61077,-4.36333 -15.72244,-18.32632 -18.96902,-42.14897 -20.77834,-63.03939 -0.45668,-5.27892 0.8461,-10.64077 3.66963,-15.09599 l 0.11431,-0.18099 c 6.46795,4.05347 14.25885,6.25222 22.38203,6.25222 16.54389,0 30.90529,-9.00459 36.01554,-22.22626 25.99283,-2.59211 45.95813,-24.39923 45.95813,-50.83472 10e-4,-19.1842 -10.63348,-36.54002 -27.42168,-45.31095 z"
     id="path956" />
  <style
     id="style2418"
     type="text/css"><![CDATA[
	.st0{fill:#EF3E42;}
	.st1{fill:#54B948;}
	.st2{fill:#FFC425;}
	.st3{fill:#FFFFFF;}
	.st4{fill:none;}
]]></style>
  <style
     id="style979"
     type="text/css"><![CDATA[
	.st0{fill:#EF3E42;}
	.st1{fill:#54B948;}
	.st2{fill:#FFC425;}
	.st3{fill:#FFFFFF;}
	.st4{fill:none;}
]]></style>
</svg>
