<?xml version="1.0" encoding="UTF-8" standalone="no"?>
<svg
   xmlns:osb="http://www.openswatchbook.org/uri/2009/osb"
   xmlns:dc="http://purl.org/dc/elements/1.1/"
   xmlns:cc="http://creativecommons.org/ns#"
   xmlns:rdf="http://www.w3.org/1999/02/22-rdf-syntax-ns#"
   xmlns:svg="http://www.w3.org/2000/svg"
   xmlns="http://www.w3.org/2000/svg"
   xmlns:xlink="http://www.w3.org/1999/xlink"
   xmlns:sodipodi="http://sodipodi.sourceforge.net/DTD/sodipodi-0.dtd"
   xmlns:inkscape="http://www.inkscape.org/namespaces/inkscape"
   width="418.35895"
   height="521.05676"
   version="1.1"
   id="svg29"
   sodipodi:docname="BIODIV_Sym_ObserAves.svg"
   inkscape:version="0.92.3 (2405546, 2018-03-11)">
  <metadata
     id="metadata35">
    <rdf:RDF>
      <cc:Work
         rdf:about="">
        <dc:format>image/svg+xml</dc:format>
        <dc:type
           rdf:resource="http://purl.org/dc/dcmitype/StillImage" />
        <dc:title />
      </cc:Work>
    </rdf:RDF>
  </metadata>
  <defs
     id="defs33">
    <linearGradient
       id="linearGradient2409"
       osb:paint="solid">
      <stop
         style="stop-color:#288bdb;stop-opacity:1;"
         offset="0"
         id="stop2407" />
    </linearGradient>
    <linearGradient
       id="linearGradient2408"
       osb:paint="gradient">
      <stop
         style="stop-color:#288b5b;stop-opacity:1;"
         offset="0"
         id="stop2404" />
      <stop
         style="stop-color:#288b52;stop-opacity:0;"
         offset="1"
         id="stop2406" />
    </linearGradient>
    <linearGradient
       id="linearGradient2345"
       osb:paint="solid">
      <stop
         style="stop-color:#288b52;stop-opacity:1;"
         offset="0"
         id="stop2343" />
    </linearGradient>
    <inkscape:path-effect
       effect="bspline"
       id="path-effect2287"
       is_visible="true"
       weight="33.333333"
       steps="2"
       helper_size="0"
       apply_no_weight="true"
       apply_with_weight="true"
       only_selected="false" />
    <inkscape:path-effect
       effect="bspline"
       id="path-effect2166"
       is_visible="true"
       weight="33.333333"
       steps="2"
       helper_size="0"
       apply_no_weight="true"
       apply_with_weight="true"
       only_selected="false" />
    <linearGradient
       y2="256"
       y1="256"
       x2="512"
       x1="-2.7000001e-006"
       id="SVGID_1_"
       gradientUnits="userSpaceOnUse"
       gradientTransform="matrix(0.06549452,0,0,0.06817363,15.161087,24.753822)">
      <stop
         id="stop913"
         style="stop-color:#33B49D"
         offset="0" />
      <stop
         id="stop915"
         style="stop-color:#00A185"
         offset="1" />
    </linearGradient>
    <linearGradient
       xlink:href="#SVGID_2_"
       id="linearGradient986"
       x1="34.803967"
       y1="142.92651"
       x2="61.725655"
       y2="142.92651"
       gradientUnits="userSpaceOnUse"
       gradientTransform="matrix(1.0379858,0,0,1.0379858,-18.170504,-106.14938)" />
    <linearGradient
       y2="256.00052"
       y1="256.00052"
       x2="469.33334"
       x1="42.666664"
       id="SVGID_2_"
       gradientUnits="userSpaceOnUse"
       gradientTransform="matrix(0.0630977,0,0,0.06567877,32.111799,126.11271)"
       spreadMethod="pad">
      <stop
         id="stop920"
         style="stop-color:#00A185"
         offset="0" />
      <stop
         id="stop922"
         style="stop-color:#33B49D"
         offset="1" />
    </linearGradient>
    <linearGradient
       y2="256"
       y1="256"
       x2="512"
       x1="3.8000001e-006"
       id="SVGID_1_-9"
       gradientUnits="userSpaceOnUse"
       gradientTransform="matrix(0.11615282,0,0,0.12401206,60.361174,-26.469221)">
      <stop
         id="stop909"
         style="stop-color:#33B49D"
         offset="0" />
      <stop
         id="stop911"
         style="stop-color:#00A185"
         offset="1" />
    </linearGradient>
    <linearGradient
       y2="256.00052"
       y1="256.00052"
       x2="469.33334"
       x1="42.666668"
       id="SVGID_2_-1"
       gradientUnits="userSpaceOnUse"
       gradientTransform="matrix(0.11615282,0,0,0.12401206,60.361174,-26.469221)">
      <stop
         id="stop916"
         style="stop-color:#00A185"
         offset="0" />
      <stop
         id="stop918"
         style="stop-color:#33B49D"
         offset="1" />
    </linearGradient>
  </defs>
  <sodipodi:namedview
     pagecolor="#ffffff"
     bordercolor="#666666"
     borderopacity="1"
     objecttolerance="10"
     gridtolerance="10"
     guidetolerance="10"
     inkscape:pageopacity="0"
     inkscape:pageshadow="2"
     inkscape:window-width="1920"
     inkscape:window-height="1033"
     id="namedview31"
     showgrid="false"
     inkscape:pagecheckerboard="true"
     fit-margin-top="0"
     fit-margin-left="0"
     fit-margin-right="0"
     fit-margin-bottom="0"
     inkscape:zoom="0.54418224"
     inkscape:cx="-298.96483"
     inkscape:cy="-92.036492"
     inkscape:window-x="-4"
     inkscape:window-y="-4"
     inkscape:window-maximized="1"
     inkscape:current-layer="svg29"
     inkscape:snap-text-baseline="false" />
  <g
     transform="matrix(1.1206599,0,0,1.0496383,-61.646048,8.4307947)"
     id="g819"
     style="display:inline;fill:#feffdf;fill-opacity:0.73394494" />
  <g
     transform="matrix(1.1206599,0,0,1.0496383,-61.646048,8.4307947)"
     id="g821"
     style="display:inline;fill:#feffdf;fill-opacity:0.73394494" />
  <g
     transform="matrix(1.1206599,0,0,1.0496383,-61.646048,8.4307947)"
     id="g823"
     style="display:inline;fill:#feffdf;fill-opacity:0.73394494" />
  <g
     transform="matrix(1.1206599,0,0,1.0496383,-61.646048,8.4307947)"
     id="g825"
     style="display:inline;fill:#feffdf;fill-opacity:0.73394494" />
  <g
     transform="matrix(1.1206599,0,0,1.0496383,-61.646048,8.4307947)"
     id="g827"
     style="display:inline;fill:#feffdf;fill-opacity:0.73394494" />
  <g
     transform="matrix(1.1206599,0,0,1.0496383,-61.646048,8.4307947)"
     id="g829"
     style="display:inline;fill:#feffdf;fill-opacity:0.73394494" />
  <g
     transform="matrix(1.1206599,0,0,1.0496383,-61.646048,8.4307947)"
     id="g831"
     style="display:inline;fill:#feffdf;fill-opacity:0.73394494" />
  <g
     transform="matrix(1.1206599,0,0,1.0496383,-61.646048,8.4307947)"
     id="g833"
     style="display:inline;fill:#feffdf;fill-opacity:0.73394494" />
  <g
     transform="matrix(1.1206599,0,0,1.0496383,-61.646048,8.4307947)"
     id="g835"
     style="display:inline;fill:#feffdf;fill-opacity:0.73394494" />
  <g
     transform="matrix(1.1206599,0,0,1.0496383,-61.646048,8.4307947)"
     id="g837"
     style="display:inline;fill:#feffdf;fill-opacity:0.73394494" />
  <g
     transform="matrix(1.1206599,0,0,1.0496383,-61.646048,8.4307947)"
     id="g839"
     style="display:inline;fill:#feffdf;fill-opacity:0.73394494" />
  <g
     transform="matrix(1.1206599,0,0,1.0496383,-61.646048,8.4307947)"
     id="g841"
     style="display:inline;fill:#feffdf;fill-opacity:0.73394494" />
  <g
     transform="matrix(1.1206599,0,0,1.0496383,-61.646048,8.4307947)"
     id="g843"
     style="display:inline;fill:#feffdf;fill-opacity:0.73394494" />
  <g
     transform="matrix(1.1206599,0,0,1.0496383,-61.646048,8.4307947)"
     id="g845"
     style="display:inline;fill:#feffdf;fill-opacity:0.73394494" />
  <g
     transform="matrix(1.1206599,0,0,1.0496383,-61.646048,8.4307947)"
     id="g847"
     style="display:inline;fill:#feffdf;fill-opacity:0.73394494" />
  <circle
     cy="211.80115"
     cx="209.20232"
     id="path883-2"
     style="display:inline;opacity:1;fill:none;fill-opacity:1;fill-rule:nonzero;stroke:none;stroke-width:9.44881916;stroke-miterlimit:4;stroke-dasharray:none;stroke-dashoffset:0;stroke-opacity:1"
     r="206.60356" />
  <ellipse
     ry="206.99843"
     rx="206.99844"
     cy="208.61885"
     cx="208.55267"
     id="path883"
     style="display:inline;opacity:1;fill:#686868;fill-opacity:1;fill-rule:nonzero;stroke:none;stroke-width:31.52459908;stroke-miterlimit:4;stroke-dasharray:none;stroke-dashoffset:0;stroke-opacity:0.43577983" />
  <g
     style="display:inline"
     transform="translate(1183.6681,-235.80154)"
     id="g1015" />
  <g
     style="display:inline"
     transform="translate(1183.6681,-235.80154)"
     id="g1017" />
  <g
     style="display:inline"
     transform="translate(1183.6681,-235.80154)"
     id="g1019" />
  <g
     style="display:inline"
     transform="translate(1183.6681,-235.80154)"
     id="g1021" />
  <g
     style="display:inline"
     transform="translate(1183.6681,-235.80154)"
     id="g1023" />
  <g
     style="display:inline"
     transform="translate(1183.6681,-235.80154)"
     id="g1025" />
  <g
     style="display:inline"
     transform="translate(1183.6681,-235.80154)"
     id="g1027" />
  <g
     style="display:inline"
     transform="translate(1183.6681,-235.80154)"
     id="g1029" />
  <g
     style="display:inline"
     transform="translate(1183.6681,-235.80154)"
     id="g1031" />
  <g
     style="display:inline"
     transform="translate(1183.6681,-235.80154)"
     id="g1033" />
  <g
     style="display:inline"
     transform="translate(1183.6681,-235.80154)"
     id="g1035" />
  <g
     style="display:inline"
     transform="translate(1183.6681,-235.80154)"
     id="g1037" />
  <g
     style="display:inline"
     transform="translate(1183.6681,-235.80154)"
     id="g1039" />
  <g
     style="display:inline"
     transform="translate(1183.6681,-235.80154)"
     id="g1041" />
  <g
     style="display:inline"
     transform="translate(1183.6681,-235.80154)"
     id="g1043" />
  <ellipse
     inkscape:label="path883-0"
     ry="193.11743"
     rx="193.12943"
     cy="208.07823"
     cx="208.56471"
     id="path883-0"
     style="display:inline;opacity:1;fill:#afff7a;fill-opacity:1;fill-rule:nonzero;stroke:#538815;stroke-width:29.41200066;stroke-miterlimit:4;stroke-dasharray:none;stroke-dashoffset:0;stroke-opacity:1" />
  <circle
     style="display:none;fill:#ffffff;fill-opacity:1;stroke:none;stroke-width:0.77726299;stroke-miterlimit:4;stroke-dasharray:none;stroke-opacity:1"
     id="path3447"
     cx="142.04272"
     cy="182.63361"
     r="17.073847" />
  <path
     style="fill:#537e15;fill-opacity:1;stroke-width:2;stroke:#000000;stroke-opacity:1;stroke-miterlimit:4;stroke-dasharray:none"
     d="m 174.49845,340.46191 c -0.45035,-0.45044 -0.81892,-4.49574 -0.81892,-8.98965 0,-9.65364 -2.80039,-20.01548 -6.37562,-23.5907 -2.28914,-2.28916 -3.49715,-2.47559 -11.60161,-1.79051 -7.35447,0.62163 -9.04642,0.4385 -9.04642,-0.97938 0,-2.36732 4.12758,-3.5606 12.6771,-3.66491 5.02944,-0.0613 7.44214,-0.63357 8.13633,-1.92976 0.54273,-1.01339 4.13435,-13.39492 7.98134,-27.51453 l 6.99454,-25.67202 -6.07197,-6.26502 C 165.08653,228.4199 159.27771,213.79131 158.04026,193.8968 l -0.72473,-11.65161 -32.45274,-33.11952 C 107.01378,130.90992 91.37128,113.97002 90.101693,111.48142 87.534489,106.44929 85.709144,92.655744 86.954047,87.695678 c 0.800067,-3.187996 0.87254,-3.151992 11.275956,5.608673 15.789287,13.296039 55.213817,42.427789 69.532457,51.379239 30.94701,19.34684 49.58792,26.94842 68.66136,27.99942 15.1815,0.83654 20.58811,-0.92393 37.61358,-12.24757 16.80151,-11.17465 25.59998,-14.82321 35.9887,-14.9238 10.78461,-0.10442 16.5111,2.13095 24.27892,9.47744 l 6.54674,6.19163 12.87059,0.82159 c 7.07881,0.45189 13.16862,1.1196 13.5329,1.48388 0.36426,0.36432 -2.27544,1.61584 -5.86606,2.78125 -9.6817,3.14238 -22.36142,10.05944 -28.75249,15.68507 -3.35128,2.94992 -11.40253,13.73492 -19.83099,26.56452 -20.17658,30.71225 -32.46755,42.11883 -54.07349,50.18257 -6.61381,2.46841 -11.24852,3.20474 -23.02115,3.6575 -8.10708,0.31182 -15.12112,0.92353 -15.58673,1.35946 -0.46559,0.43592 -2.0282,7.70205 -3.4724,16.14693 l -2.62581,15.35435 3.40743,2.4567 c 11.31227,8.15594 20.37832,20.76362 18.48286,25.7031 -1.27372,3.31927 -2.86089,2.14827 -5.1255,-3.78151 -3.923,-10.27225 -15.79557,-20.62847 -13.51367,-11.78772 2.98984,11.58344 3.00615,26.10238 0.0293,26.10238 -0.99895,0 -1.74102,-3.37747 -2.2265,-10.13387 -0.7788,-10.8377 -3.3004,-19.6087 -6.73206,-23.41615 -2.13357,-2.36721 -2.97579,-2.39162 -17.95359,-0.52003 -3.64743,0.45584 -3.76463,-2.6277 -0.15204,-4.0012 1.78788,-0.6797 6.49862,-1.2359 10.46832,-1.2359 3.96969,0 7.51306,-0.47802 7.87415,-1.0623 0.36116,-0.58422 1.75082,-7.88152 3.08828,-16.21612 2.42323,-15.10085 2.14365,-18.30847 -1.60061,-18.36432 -0.76176,-0.0113 -5.99653,-1.89086 -11.63281,-4.17664 l -10.24775,-4.15596 -1.5678,3.86953 c -0.86235,2.12826 -4.516,13.77903 -8.11934,25.89064 l -6.55154,22.02107 3.56196,2.54587 c 8.18566,5.8506 14.2811,12.43079 17.37739,18.75939 2.6693,5.45584 2.9767,6.93097 1.61922,7.76993 -2.36855,1.46385 -3.22593,0.63542 -6.12299,-5.91619 -2.84616,-6.43643 -8.09445,-12.53969 -10.78312,-12.53969 -1.29782,0 -1.53941,0.88125 -0.92598,3.37796 0.45638,1.85787 1.14124,8.21457 1.52179,14.12599 0.57338,8.90627 0.38552,10.74804 -1.09612,10.74804 -0.98343,0 -2.15655,-0.36851 -2.60695,-0.81889 z M 314.93952,163.66027 c 0,-3.89653 0,1.68201 0,0 z"
     id="path919"
     inkscape:connector-curvature="0"
     sodipodi:nodetypes="csccsccscsscscccsscsscccccscccscccccscsccscccsccccscccsccsccss" />
  <style
     id="style2418"
     type="text/css"><![CDATA[
	.st0{fill:#EF3E42;}
	.st1{fill:#54B948;}
	.st2{fill:#FFC425;}
	.st3{fill:#FFFFFF;}
	.st4{fill:none;}
]]></style>
  <style
     id="style979"
     type="text/css"><![CDATA[
	.st0{fill:#EF3E42;}
	.st1{fill:#54B948;}
	.st2{fill:#FFC425;}
	.st3{fill:#FFFFFF;}
	.st4{fill:none;}
]]></style>
</svg>
